<svg xmlns="http://www.w3.org/2000/svg" width="1400" height="1305" viewBox="0 0 1400 1305"><defs><marker id="arr" viewBox="0 0 10 10" refX="5" refY="5" markerWidth="6" markerHeight="6" orient="auto-start-reverse"><path d="M0 0L10 5L0 10z" fill="#2a6fdb"/></marker></defs><rect width="100%" height="100%" fill="#F5F1E8"/><polygon points="125.8,644.3 138.9,644.9 83,681.1 70,680.5" fill="#f2e5c9" stroke="#776344" stroke-width="1" stroke-linejoin="round"/><polygon points="70,1176.3 83,1176.9 83,681.1 70,680.5" fill="#e6d3ae" stroke="#776344" stroke-width="1" stroke-linejoin="round"/><polygon points="138.9,1140.7 83,1176.9 83,681.1 138.9,644.9" fill="#ccb78c" stroke="#776344" stroke-width="1" stroke-linejoin="round"/><polygon points="138.9,1127.4 315.4,1135.7 259.6,1171.9 83,1163.6" fill="#f2e5c9" stroke="#776344" stroke-width="1" stroke-linejoin="round"/><polygon points="83,1176.9 259.6,1185.1 259.6,1171.9 83,1163.6" fill="#e6d3ae" stroke="#776344" stroke-width="1" stroke-linejoin="round"/><polygon points="315.4,1148.9 259.6,1185.1 259.6,1171.9 315.4,1135.7" fill="#ccb78c" stroke="#776344" stroke-width="1" stroke-linejoin="round"/><polygon points="131.8,654.1 318.5,662.8 317.4,663.5 130.7,654.8" fill="#f3d9b1" stroke="#5b3a12" stroke-width="1" stroke-linejoin="round"/><polygon points="130.7,1134.4 317.4,1143.1 317.4,663.5 130.7,654.8" fill="#e2b97f" stroke="#5b3a12" stroke-width="1" stroke-linejoin="round"/><polygon points="318.5,1142.4 317.4,1143.1 317.4,663.5 318.5,662.8" fill="#cf9f5f" stroke="#5b3a12" stroke-width="1" stroke-linejoin="round"/><polygon points="135.7,914.7 312.2,922.9 259.6,957.1 83,948.9" fill="#f2e5c9" stroke="#776344" stroke-width="1" stroke-linejoin="round"/><polygon points="83,962.1 259.6,970.3 259.6,957.1 83,948.9" fill="#e6d3ae" stroke="#776344" stroke-width="1" stroke-linejoin="round"/><polygon points="312.2,936.2 259.6,970.3 259.6,957.1 312.2,922.9" fill="#ccb78c" stroke="#776344" stroke-width="1" stroke-linejoin="round"/><polygon points="138.9,644.9 315.4,653.1 259.6,689.3 83,681.1" fill="#f2e5c9" stroke="#776344" stroke-width="1" stroke-linejoin="round"/><polygon points="83,694.4 259.6,702.6 259.6,689.3 83,681.1" fill="#e6d3ae" stroke="#776344" stroke-width="1" stroke-linejoin="round"/><polygon points="315.4,666.4 259.6,702.6 259.6,689.3 315.4,653.1" fill="#ccb78c" stroke="#776344" stroke-width="1" stroke-linejoin="round"/><polygon points="315.4,653.1 328.5,653.7 272.6,689.9 259.6,689.3" fill="#f2e5c9" stroke="#776344" stroke-width="1" stroke-linejoin="round"/><polygon points="259.6,1185.1 272.6,1185.7 272.6,689.9 259.6,689.3" fill="#e6d3ae" stroke="#776344" stroke-width="1" stroke-linejoin="round"/><polygon points="328.5,1149.5 272.6,1185.7 272.6,689.9 328.5,653.7" fill="#ccb78c" stroke="#776344" stroke-width="1" stroke-linejoin="round"/><polygon points="351.6,383.3 364.6,383.9 301.8,424.6 288.8,424" fill="#f2e5c9" stroke="#776344" stroke-width="1" stroke-linejoin="round"/><polygon points="288.8,1191.3 301.8,1191.9 301.8,424.6 288.8,424" fill="#e6d3ae" stroke="#776344" stroke-width="1" stroke-linejoin="round"/><polygon points="364.6,1151.2 301.8,1191.9 301.8,424.6 364.6,383.9" fill="#ccb78c" stroke="#776344" stroke-width="1" stroke-linejoin="round"/><polygon points="364.6,1138 558.6,1147 495.8,1187.7 301.8,1178.7" fill="#f2e5c9" stroke="#776344" stroke-width="1" stroke-linejoin="round"/><polygon points="301.8,1191.9 495.8,1201 495.8,1187.7 301.8,1178.7" fill="#e6d3ae" stroke="#776344" stroke-width="1" stroke-linejoin="round"/><polygon points="558.6,1160.3 495.8,1201 495.8,1187.7 558.6,1147" fill="#ccb78c" stroke="#776344" stroke-width="1" stroke-linejoin="round"/><polygon points="357.6,393.1 561.7,402.6 560.5,403.3 356.4,393.8" fill="#A8513D" stroke="#593D32" stroke-width="1" stroke-linejoin="round"/><polygon points="356.4,1144.9 560.5,1154.4 560.5,403.3 356.4,393.8" fill="#A8513D" stroke="#593D32" stroke-width="1" stroke-linejoin="round"/><polygon points="561.7,1153.7 560.5,1154.4 560.5,403.3 561.7,402.6" fill="#A8513D" stroke="#593D32" stroke-width="1" stroke-linejoin="round"/><polygon points="361.4,915.4 555.4,924.5 495.8,963.1 301.8,954.1" fill="#f2e5c9" stroke="#776344" stroke-width="1" stroke-linejoin="round"/><polygon points="301.8,967.4 495.8,976.4 495.8,963.1 301.8,954.1" fill="#e6d3ae" stroke="#776344" stroke-width="1" stroke-linejoin="round"/><polygon points="555.4,937.7 495.8,976.4 495.8,963.1 555.4,924.5" fill="#ccb78c" stroke="#776344" stroke-width="1" stroke-linejoin="round"/><polygon points="361.4,631.5 555.4,640.6 495.8,679.2 301.8,670.2" fill="#f2e5c9" stroke="#776344" stroke-width="1" stroke-linejoin="round"/><polygon points="301.8,683.5 495.8,692.5 495.8,679.2 301.8,670.2" fill="#e6d3ae" stroke="#776344" stroke-width="1" stroke-linejoin="round"/><polygon points="555.4,653.8 495.8,692.5 495.8,679.2 555.4,640.6" fill="#ccb78c" stroke="#776344" stroke-width="1" stroke-linejoin="round"/><polygon points="364.6,383.9 558.6,392.9 495.8,433.7 301.8,424.6" fill="#f2e5c9" stroke="#776344" stroke-width="1" stroke-linejoin="round"/><polygon points="301.8,437.9 495.8,446.9 495.8,433.7 301.8,424.6" fill="#e6d3ae" stroke="#776344" stroke-width="1" stroke-linejoin="round"/><polygon points="558.6,406.2 495.8,446.9 495.8,433.7 558.6,392.9" fill="#ccb78c" stroke="#776344" stroke-width="1" stroke-linejoin="round"/><polygon points="558.6,392.9 571.6,393.6 508.8,434.3 495.8,433.7" fill="#f2e5c9" stroke="#776344" stroke-width="1" stroke-linejoin="round"/><polygon points="495.8,1201 508.8,1201.6 508.8,434.3 495.8,433.7" fill="#e6d3ae" stroke="#776344" stroke-width="1" stroke-linejoin="round"/><polygon points="571.6,1160.9 508.8,1201.6 508.8,434.3 571.6,393.6" fill="#ccb78c" stroke="#776344" stroke-width="1" stroke-linejoin="round"/><polygon points="594.8,70 607.8,70.6 538,115.8 525,115.2" fill="#f2e5c9" stroke="#776344" stroke-width="1" stroke-linejoin="round"/><polygon points="525,1207.2 538,1207.8 538,115.8 525,115.2" fill="#e6d3ae" stroke="#776344" stroke-width="1" stroke-linejoin="round"/><polygon points="607.8,1162.5 538,1207.8 538,115.8 607.8,70.6" fill="#ccb78c" stroke="#776344" stroke-width="1" stroke-linejoin="round"/><polygon points="607.8,1149.3 784.4,1157.5 714.6,1202.7 538,1194.5" fill="#f2e5c9" stroke="#776344" stroke-width="1" stroke-linejoin="round"/><polygon points="538,1207.8 714.6,1216 714.6,1202.7 538,1194.5" fill="#e6d3ae" stroke="#776344" stroke-width="1" stroke-linejoin="round"/><polygon points="784.4,1170.8 714.6,1216 714.6,1202.7 784.4,1157.5" fill="#ccb78c" stroke="#776344" stroke-width="1" stroke-linejoin="round"/><polygon points="600.7,79.8 787.4,88.5 786.3,89.2 599.6,80.5" fill="#f3d9b1" stroke="#5b3a12" stroke-width="1" stroke-linejoin="round"/><polygon points="599.6,1156.2 786.3,1164.9 786.3,89.2 599.6,80.5" fill="#e2b97f" stroke="#5b3a12" stroke-width="1" stroke-linejoin="round"/><polygon points="787.4,1164.2 786.3,1164.9 786.3,89.2 787.4,88.5" fill="#cf9f5f" stroke="#5b3a12" stroke-width="1" stroke-linejoin="round"/><polygon points="604.6,902.6 781.2,910.8 714.6,953.9 538,945.7" fill="#f2e5c9" stroke="#776344" stroke-width="1" stroke-linejoin="round"/><polygon points="538,959 714.6,967.2 714.6,953.9 538,945.7" fill="#e6d3ae" stroke="#776344" stroke-width="1" stroke-linejoin="round"/><polygon points="781.2,924.1 714.6,967.2 714.6,953.9 781.2,910.8" fill="#ccb78c" stroke="#776344" stroke-width="1" stroke-linejoin="round"/><polygon points="604.6,629.6 781.2,637.8 714.6,680.9 538,672.7" fill="#f2e5c9" stroke="#776344" stroke-width="1" stroke-linejoin="round"/><polygon points="538,686 714.6,694.2 714.6,680.9 538,672.7" fill="#e6d3ae" stroke="#776344" stroke-width="1" stroke-linejoin="round"/><polygon points="781.2,651.1 714.6,694.2 714.6,680.9 781.2,637.8" fill="#ccb78c" stroke="#776344" stroke-width="1" stroke-linejoin="round"/><polygon points="604.6,334.7 781.2,343 714.6,386.1 538,377.9" fill="#f2e5c9" stroke="#776344" stroke-width="1" stroke-linejoin="round"/><polygon points="538,391.2 714.6,399.4 714.6,386.1 538,377.9" fill="#e6d3ae" stroke="#776344" stroke-width="1" stroke-linejoin="round"/><polygon points="781.2,356.2 714.6,399.4 714.6,386.1 781.2,343" fill="#ccb78c" stroke="#776344" stroke-width="1" stroke-linejoin="round"/><polygon points="607.8,70.6 784.4,78.8 714.6,124.1 538,115.8" fill="#f2e5c9" stroke="#776344" stroke-width="1" stroke-linejoin="round"/><polygon points="538,129.1 714.6,137.3 714.6,124.1 538,115.8" fill="#e6d3ae" stroke="#776344" stroke-width="1" stroke-linejoin="round"/><polygon points="784.4,92.1 714.6,137.3 714.6,124.1 784.4,78.8" fill="#ccb78c" stroke="#776344" stroke-width="1" stroke-linejoin="round"/><polygon points="784.4,78.8 797.4,79.4 727.6,124.7 714.6,124.1" fill="#f2e5c9" stroke="#776344" stroke-width="1" stroke-linejoin="round"/><polygon points="714.6,1216 727.6,1216.6 727.6,124.7 714.6,124.1" fill="#e6d3ae" stroke="#776344" stroke-width="1" stroke-linejoin="round"/><polygon points="797.4,1171.4 727.6,1216.6 727.6,124.7 797.4,79.4" fill="#ccb78c" stroke="#776344" stroke-width="1" stroke-linejoin="round"/><polygon points="820.5,275.3 833.6,275.9 768,318.4 754.9,317.8" fill="#f2e5c9" stroke="#776344" stroke-width="1" stroke-linejoin="round"/><polygon points="754.9,1215 768,1215.6 768,318.4 754.9,317.8" fill="#e6d3ae" stroke="#776344" stroke-width="1" stroke-linejoin="round"/><polygon points="833.6,1173.1 768,1215.6 768,318.4 833.6,275.9" fill="#ccb78c" stroke="#776344" stroke-width="1" stroke-linejoin="round"/><polygon points="833.6,1159.8 1073.8,1171 1008.2,1213.5 768,1202.3" fill="#f2e5c9" stroke="#776344" stroke-width="1" stroke-linejoin="round"/><polygon points="768,1215.6 1008.2,1226.8 1008.2,1213.5 768,1202.3" fill="#e6d3ae" stroke="#776344" stroke-width="1" stroke-linejoin="round"/><polygon points="1073.8,1184.2 1008.2,1226.8 1008.2,1213.5 1073.8,1171" fill="#ccb78c" stroke="#776344" stroke-width="1" stroke-linejoin="round"/><polygon points="826.5,285.1 1076.9,296.7 1075.7,297.5 825.4,285.8" fill="#A8513D" stroke="#593D32" stroke-width="1" stroke-linejoin="round"/><polygon points="825.4,1166.7 1075.7,1178.4 1075.7,297.5 825.4,285.8" fill="#A8513D" stroke="#593D32" stroke-width="1" stroke-linejoin="round"/><polygon points="1076.9,1177.6 1075.7,1178.4 1075.7,297.5 1076.9,296.7" fill="#A8513D" stroke="#593D32" stroke-width="1" stroke-linejoin="round"/><polygon points="830.4,914.9 1070.6,926.1 1008.2,966.6 768,955.4" fill="#f2e5c9" stroke="#776344" stroke-width="1" stroke-linejoin="round"/><polygon points="768,968.7 1008.2,979.9 1008.2,966.6 768,955.4" fill="#e6d3ae" stroke="#776344" stroke-width="1" stroke-linejoin="round"/><polygon points="1070.6,939.4 1008.2,979.9 1008.2,966.6 1070.6,926.1" fill="#ccb78c" stroke="#776344" stroke-width="1" stroke-linejoin="round"/><polygon points="830.4,600.9 1070.6,612.1 1008.2,652.6 768,641.4" fill="#f2e5c9" stroke="#776344" stroke-width="1" stroke-linejoin="round"/><polygon points="768,654.7 1008.2,665.9 1008.2,652.6 768,641.4" fill="#e6d3ae" stroke="#776344" stroke-width="1" stroke-linejoin="round"/><polygon points="1070.6,625.4 1008.2,665.9 1008.2,652.6 1070.6,612.1" fill="#ccb78c" stroke="#776344" stroke-width="1" stroke-linejoin="round"/><polygon points="833.6,275.9 1073.8,287.1 1008.2,329.6 768,318.4" fill="#f2e5c9" stroke="#776344" stroke-width="1" stroke-linejoin="round"/><polygon points="768,331.7 1008.2,342.9 1008.2,329.6 768,318.4" fill="#e6d3ae" stroke="#776344" stroke-width="1" stroke-linejoin="round"/><polygon points="1073.8,300.3 1008.2,342.9 1008.2,329.6 1073.8,287.1" fill="#ccb78c" stroke="#776344" stroke-width="1" stroke-linejoin="round"/><polygon points="1073.8,287.1 1086.9,287.7 1021.2,330.2 1008.2,329.6" fill="#f2e5c9" stroke="#776344" stroke-width="1" stroke-linejoin="round"/><polygon points="1008.2,1226.8 1021.2,1227.4 1021.2,330.2 1008.2,329.6" fill="#e6d3ae" stroke="#776344" stroke-width="1" stroke-linejoin="round"/><polygon points="1086.9,1184.8 1021.2,1227.4 1021.2,330.2 1086.9,287.7" fill="#ccb78c" stroke="#776344" stroke-width="1" stroke-linejoin="round"/><polygon points="1110,572.1 1123,572.7 1064.4,610.7 1051.4,610.1" fill="#f2e5c9" stroke="#776344" stroke-width="1" stroke-linejoin="round"/><polygon points="1051.4,1223.9 1064.4,1224.5 1064.4,610.7 1051.4,610.1" fill="#e6d3ae" stroke="#776344" stroke-width="1" stroke-linejoin="round"/><polygon points="1123,1186.5 1064.4,1224.5 1064.4,610.7 1123,572.7" fill="#ccb78c" stroke="#776344" stroke-width="1" stroke-linejoin="round"/><polygon points="1123,1173.2 1317,1182.3 1258.3,1220.3 1064.4,1211.2" fill="#f2e5c9" stroke="#776344" stroke-width="1" stroke-linejoin="round"/><polygon points="1064.4,1224.5 1258.3,1233.5 1258.3,1220.3 1064.4,1211.2" fill="#e6d3ae" stroke="#776344" stroke-width="1" stroke-linejoin="round"/><polygon points="1317,1195.5 1258.3,1233.5 1258.3,1220.3 1317,1182.3" fill="#ccb78c" stroke="#776344" stroke-width="1" stroke-linejoin="round"/><polygon points="1116,581.8 1320.1,591.3 1318.9,592.1 1114.8,582.6" fill="#f3d9b1" stroke="#5b3a12" stroke-width="1" stroke-linejoin="round"/><polygon points="1114.8,1180.2 1318.9,1189.7 1318.9,592.1 1114.8,582.6" fill="#e2b97f" stroke="#5b3a12" stroke-width="1" stroke-linejoin="round"/><polygon points="1320.1,1189 1318.9,1189.7 1318.9,592.1 1320.1,591.3" fill="#cf9f5f" stroke="#5b3a12" stroke-width="1" stroke-linejoin="round"/><polygon points="1119.8,863.3 1313.8,872.3 1258.3,908.2 1064.4,899.2" fill="#f2e5c9" stroke="#776344" stroke-width="1" stroke-linejoin="round"/><polygon points="1064.4,912.5 1258.3,921.5 1258.3,908.2 1064.4,899.2" fill="#e6d3ae" stroke="#776344" stroke-width="1" stroke-linejoin="round"/><polygon points="1313.8,885.6 1258.3,921.5 1258.3,908.2 1313.8,872.3" fill="#ccb78c" stroke="#776344" stroke-width="1" stroke-linejoin="round"/><polygon points="1123,572.7 1317,581.7 1258.3,619.7 1064.4,610.7" fill="#f2e5c9" stroke="#776344" stroke-width="1" stroke-linejoin="round"/><polygon points="1064.4,624 1258.3,633 1258.3,619.7 1064.4,610.7" fill="#e6d3ae" stroke="#776344" stroke-width="1" stroke-linejoin="round"/><polygon points="1317,595 1258.3,633 1258.3,619.7 1317,581.7" fill="#ccb78c" stroke="#776344" stroke-width="1" stroke-linejoin="round"/><polygon points="1317,581.7 1330,582.3 1271.4,620.3 1258.3,619.7" fill="#f2e5c9" stroke="#776344" stroke-width="1" stroke-linejoin="round"/><polygon points="1258.3,1233.5 1271.4,1234.1 1271.4,620.3 1258.3,619.7" fill="#e6d3ae" stroke="#776344" stroke-width="1" stroke-linejoin="round"/><polygon points="1330,1196.1 1271.4,1234.1 1271.4,620.3 1330,582.3" fill="#ccb78c" stroke="#776344" stroke-width="1" stroke-linejoin="round"/></svg>